<?xml version="1.0" encoding="utf-8"?>
<!-- Generator: Adobe Illustrator 27.5.0, SVG Export Plug-In . SVG Version: 6.00 Build 0)  -->
<svg version="1.1" xmlns="http://www.w3.org/2000/svg" xmlns:xlink="http://www.w3.org/1999/xlink" x="0px" y="0px"
	 viewBox="0 0 500 500" style="enable-background:new 0 0 500 500;" xml:space="preserve">
<g id="BACKGROUND">
	<rect style="fill:#FFFFFF;" width="500" height="500"/>
</g>
<g id="OBJECTS">
	<g>
		<ellipse style="fill:#D7D0BF;" cx="250" cy="404.125" rx="200.206" ry="24.935"/>
		<path style="fill:#FFF7E8;" d="M404.294,387.377c26.676-33.697,42.609-76.287,42.609-122.602
			c0-109.18-88.508-197.687-197.687-197.687S51.529,155.596,51.529,264.775c0,46.315,15.933,88.905,42.609,122.602H404.294z"/>
		<g>
			<path style="fill:#AE4059;" d="M354.263,113.236c-0.896-0.644-2.22-0.295-3.005,0.48s-1.291,2.381-1.643,3.426
				c0.204-1.316,0.405-2.687,0.003-3.956c-0.402-1.269-1.604-2.392-2.926-2.235c-1.112,0.132-1.967,1.126-2.287,2.2
				c-0.32,1.074-0.205,2.977-0.095,4.092c-0.493-1.327-1.049-2.737-2.214-3.542c-1.165-0.805-3.121-0.591-3.599,0.741
				c-0.346,0.966,0.206,2.013,0.822,2.834c1.227,1.637,2.792,3.02,4.567,4.038c3.348,1.919,8.373-0.736,10.43-4
				c0.401-0.635,0.731-1.339,0.781-2.089C355.147,114.476,354.873,113.674,354.263,113.236z"/>
			<path style="fill:#A7BF51;" d="M340.759,160.049h11.5c0,0,18.986-38.775-5.249-40.543c-1.17-0.085-2.357-0.059-3.513,0.142
				C324.177,123.015,340.759,160.049,340.759,160.049z"/>
			<g>
				<path style="fill:#68A565;" d="M349.131,160.549h-4.987c-0.239,0-0.445-0.17-0.491-0.405
					c-0.297-1.529-7.169-37.479,1.492-40.959c0.553-0.223,1.181-0.274,1.793-0.172c1.331,0.224,2.448,0.989,3.322,2.273
					c5.736,8.431-0.377,37.628-0.639,38.867C349.571,160.384,349.367,160.549,349.131,160.549z M344.557,159.549h4.166
					c0.722-3.571,5.86-30.13,0.71-37.701c-0.725-1.065-1.595-1.67-2.661-1.849c-0.434-0.073-0.867-0.043-1.254,0.113
					C339.045,122.714,342.563,149.07,344.557,159.549z"/>
			</g>
		</g>
		<g>
			<path style="fill:#AE4059;" d="M369.211,133.907c-0.267-0.475-0.933-0.595-1.447-0.411c-0.513,0.183-1.075,0.798-1.451,1.193
				c0.366-0.547,0.742-1.12,0.826-1.772c0.085-0.653-0.22-1.406-0.845-1.612c-0.526-0.173-1.117,0.094-1.484,0.509
				c-0.367,0.415-0.713,1.291-0.896,1.814c0.056-0.697,0.101-1.445-0.253-2.049c-0.354-0.603-1.275-0.916-1.767-0.418
				c-0.357,0.361-0.327,0.945-0.223,1.441c0.208,0.99,0.621,1.936,1.204,2.762c1.1,1.558,3.906,1.416,5.509,0.383
				c0.312-0.201,0.607-0.448,0.785-0.773C369.349,134.647,369.393,134.23,369.211,133.907z"/>
			<path style="fill:#68A565;" d="M352.907,151.841l5.154,2.398c0,0,16.595-13.417,6.103-19.263
				c-0.507-0.282-1.044-0.518-1.604-0.669C353.2,131.787,352.907,151.841,352.907,151.841z"/>
			<g>
				<path style="fill:#A7BF51;" d="M356.659,154.087c-0.071,0-0.143-0.015-0.211-0.047l-2.234-1.04
					c-0.217-0.101-0.332-0.341-0.274-0.574c0.464-1.867,4.672-18.239,9.355-18.239c0.009,0,0.105,0.002,0.114,0.003
					c0.34,0.018,0.666,0.133,0.969,0.341c0.608,0.419,0.985,1.05,1.121,1.879c0.83,5.08-8.061,16.973-8.44,17.477
					C356.961,154.016,356.811,154.087,356.659,154.087z M355.01,152.268l1.489,0.693c1.428-1.953,8.703-12.162,8.012-16.389
					c-0.091-0.557-0.32-0.955-0.7-1.216c-0.151-0.104-0.3-0.159-0.456-0.167c0,0,0,0-0.001,0
					C360.411,135.189,356.737,145.496,355.01,152.268z"/>
			</g>
		</g>
		<g>
			<path style="fill:#AE4059;" d="M401.934,116.231c-0.896-0.643-2.22-0.294-3.005,0.481c-0.785,0.775-1.291,2.381-1.643,3.426
				c0.204-1.316,0.405-2.687,0.003-3.957c-0.402-1.269-1.604-2.392-2.926-2.235c-1.112,0.132-1.967,1.126-2.287,2.2
				c-0.32,1.074-0.205,2.977-0.095,4.092c-0.493-1.327-1.049-2.737-2.214-3.542c-1.165-0.805-3.121-0.592-3.599,0.741
				c-0.346,0.966,0.206,2.013,0.822,2.834c1.227,1.637,2.792,3.02,4.567,4.038c3.348,1.918,8.373-0.736,10.43-4
				c0.401-0.635,0.731-1.339,0.781-2.089C402.818,117.471,402.544,116.669,401.934,116.231z"/>
			<g>
				<path style="fill:#A7BF51;" d="M409.905,137.448c0,8.554-6.934,18.471-15.487,18.471c-8.554,0-15.488-9.917-15.488-18.471
					c0-8.553,6.934-15.488,15.488-15.488C402.971,121.961,409.905,128.895,409.905,137.448z"/>
				<g>
					<path style="fill:#68A565;" d="M394.418,156.419c-5.135,0-9.117-10.198-9.117-18.971c0-8.815,4.09-15.987,9.117-15.987
						c5.027,0,9.117,7.172,9.117,15.987C403.535,146.221,399.553,156.419,394.418,156.419z M394.418,122.461
						c-4.476,0-8.117,6.723-8.117,14.987c0,8.14,3.621,17.971,8.117,17.971c4.497,0,8.117-9.831,8.117-17.971
						C402.535,129.184,398.894,122.461,394.418,122.461z"/>
				</g>
			</g>
		</g>
		<g>
			<g>
				<g>
					<polygon style="fill:#AE4059;" points="397.581,198.667 403.924,198.667 406.344,178.333 395.161,178.333 					"/>
					<polygon style="fill:#AE4059;" points="339.076,198.667 345.419,198.667 347.839,178.333 336.656,178.333 					"/>
				</g>
				<g>
					<polygon style="fill:#4D2647;" points="405.71,183.667 406.344,178.333 395.161,178.333 395.796,183.667 					"/>
					<polygon style="fill:#4D2647;" points="347.204,183.667 347.839,178.333 336.656,178.333 337.29,183.667 					"/>
				</g>
				<rect x="326" y="170.333" style="fill:#AE4059;" width="91" height="8"/>
			</g>
			<g>
				<g>
					<rect x="376.322" y="149.945" style="fill:#E5E5E1;" width="36.192" height="5.201"/>
					<polygon style="fill:#E5E5E1;" points="407.376,170.333 409.697,155.146 379.139,155.146 381.459,170.333 					"/>
					<polygon style="fill:#D7D0BF;" points="408.904,160.333 409.697,155.146 379.139,155.146 379.932,160.333 					"/>
				</g>
				<g>
					<g>
						<rect x="332.436" y="149.945" style="fill:#E5E5E1;" width="36.192" height="5.201"/>
						<polygon style="fill:#E5E5E1;" points="363.49,170.333 365.81,155.146 335.253,155.146 337.573,170.333 						"/>
						<polygon style="fill:#D7D0BF;" points="365.12,159.667 365.81,155.146 335.253,155.146 335.944,159.667 						"/>
					</g>
				</g>
			</g>
		</g>
		<g>
			<g>
				<path style="fill:#FF4262;" d="M378.96,253.51l-2.35,7.64L349.62,349h-204.6l-26.98-87.85l-2.35-7.64
					c-3.22-10.48,2.89-21.63,13.51-24.37c41.76-10.8,194.49-10.8,236.25,0C376.07,231.88,382.18,243.03,378.96,253.51z"/>
				<g>
					<g>
						<g>
							<circle style="fill:#BD2C4B;" cx="332.718" cy="257.818" r="6.973"/>
							<g>
								<path style="fill:#BD2C4B;" d="M344.222,247.901c-2.475,2.475-4.837,4.127-5.275,3.689c-0.438-0.438,1.213-2.8,3.689-5.275
									c2.475-2.475,4.837-4.127,5.275-3.689C348.349,243.064,346.698,245.426,344.222,247.901z"/>
								<path style="fill:#BD2C4B;" d="M322.801,269.322c-2.475,2.475-4.837,4.127-5.275,3.689c-0.438-0.438,1.213-2.8,3.689-5.275
									c2.475-2.475,4.837-4.127,5.275-3.689C326.928,264.485,325.277,266.846,322.801,269.322z"/>
							</g>
							<g>
								<path style="fill:#BD2C4B;" d="M342.635,269.322c-2.475-2.475-4.127-4.837-3.689-5.275c0.438-0.438,2.8,1.213,5.275,3.689
									c2.475,2.475,4.127,4.837,3.689,5.275C347.473,273.449,345.111,271.797,342.635,269.322z"/>
								<path style="fill:#BD2C4B;" d="M321.215,247.901c-2.475-2.475-4.127-4.837-3.689-5.275c0.438-0.438,2.8,1.213,5.275,3.689
									c2.475,2.475,4.127,4.837,3.689,5.275C326.052,252.028,323.69,250.376,321.215,247.901z"/>
							</g>
						</g>
						<g>
							<circle style="fill:#BD2C4B;" cx="320.343" cy="303.584" r="6.973"/>
							<g>
								<path style="fill:#BD2C4B;" d="M331.847,293.666c-2.475,2.475-4.837,4.127-5.275,3.689c-0.438-0.438,1.213-2.8,3.689-5.275
									c2.475-2.475,4.837-4.127,5.275-3.689C335.974,288.829,334.322,291.191,331.847,293.666z"/>
								<path style="fill:#BD2C4B;" d="M310.426,315.087c-2.475,2.475-4.837,4.127-5.275,3.689c-0.438-0.438,1.213-2.8,3.689-5.275
									s4.837-4.127,5.275-3.689C314.553,310.25,312.901,312.612,310.426,315.087z"/>
							</g>
							<g>
								<path style="fill:#BD2C4B;" d="M330.26,315.087c-2.475-2.475-4.127-4.837-3.689-5.275c0.438-0.438,2.8,1.213,5.275,3.689
									s4.127,4.837,3.689,5.275C335.098,319.214,332.736,317.563,330.26,315.087z"/>
								<path style="fill:#BD2C4B;" d="M308.839,293.666c-2.475-2.475-4.127-4.837-3.689-5.275c0.438-0.438,2.8,1.213,5.275,3.689
									s4.127,4.837,3.689,5.275C313.676,297.793,311.315,296.142,308.839,293.666z"/>
							</g>
						</g>
					</g>
					<g>
						<g>
							<path style="fill:#BD2C4B;" d="M156.997,262.749c2.723,2.723,7.138,2.723,9.861,0c2.723-2.723,2.723-7.138,0-9.861
								c-2.723-2.723-7.138-2.723-9.861,0C154.274,255.611,154.274,260.026,156.997,262.749z"/>
							<g>
								<path style="fill:#BD2C4B;" d="M150.424,247.901c2.475,2.475,4.837,4.127,5.275,3.689c0.438-0.438-1.213-2.8-3.689-5.275
									c-2.475-2.475-4.837-4.127-5.275-3.689C146.297,243.064,147.949,245.426,150.424,247.901z"/>
								<path style="fill:#BD2C4B;" d="M171.845,269.322c2.475,2.475,4.837,4.127,5.275,3.689c0.438-0.438-1.213-2.8-3.689-5.275
									c-2.475-2.475-4.837-4.127-5.275-3.689C167.718,264.485,169.37,266.846,171.845,269.322z"/>
							</g>
							<g>
								<path style="fill:#BD2C4B;" d="M152.011,269.322c2.475-2.475,4.127-4.837,3.689-5.275c-0.438-0.438-2.8,1.213-5.275,3.689
									c-2.475,2.475-4.127,4.837-3.689,5.275C147.173,273.449,149.535,271.797,152.011,269.322z"/>
								<path style="fill:#BD2C4B;" d="M173.432,247.901c2.475-2.475,4.127-4.837,3.689-5.275c-0.438-0.438-2.8,1.213-5.275,3.689
									c-2.475,2.475-4.127,4.837-3.689,5.275C168.594,252.028,170.956,250.376,173.432,247.901z"/>
							</g>
						</g>
						<g>
							<circle style="fill:#BD2C4B;" cx="174.303" cy="303.584" r="6.973"/>
							<g>
								<path style="fill:#BD2C4B;" d="M162.799,293.666c2.475,2.475,4.837,4.127,5.275,3.689c0.438-0.438-1.213-2.8-3.689-5.275
									c-2.475-2.475-4.837-4.127-5.275-3.689C158.673,288.829,160.324,291.191,162.799,293.666z"/>
								<path style="fill:#BD2C4B;" d="M184.22,315.087c2.475,2.475,4.837,4.127,5.275,3.689c0.438-0.438-1.213-2.8-3.689-5.275
									c-2.475-2.475-4.837-4.127-5.275-3.689C180.093,310.25,181.745,312.612,184.22,315.087z"/>
							</g>
							<g>
								<path style="fill:#BD2C4B;" d="M164.386,315.087c2.475-2.475,4.127-4.837,3.689-5.275c-0.438-0.438-2.8,1.213-5.275,3.689
									c-2.475,2.475-4.127,4.837-3.689,5.275C159.549,319.214,161.911,317.563,164.386,315.087z"/>
								<path style="fill:#BD2C4B;" d="M185.807,293.666c2.475-2.475,4.127-4.837,3.689-5.275c-0.438-0.438-2.8,1.213-5.275,3.689
									c-2.475,2.475-4.127,4.837-3.689,5.275C180.97,297.793,183.331,296.142,185.807,293.666z"/>
							</g>
						</g>
					</g>
				</g>
				<g>
					<polygon style="fill:#4D2647;" points="143.969,376.685 135.99,409.963 142.323,409.963 155.323,381.167 					"/>
					<polygon style="fill:#4D2647;" points="350.677,376.685 358.656,409.963 352.323,409.963 339.323,381.167 					"/>
				</g>
				<g>
					<g>
						<path style="fill:#BD2C4B;" d="M247.32,362.94v16.81c0,4.57-3.7,8.27-8.26,8.27h-87.15c-4.56,0-8.26-3.7-8.26-8.27v-16.81
							H247.32z"/>
						<path style="fill:#BD2C4B;" d="M247.323,345.713c0-21.479-103.677-21.479-103.677,0v17.231h103.677V345.713z"/>
					</g>
					<g>
						<path style="fill:#BD2C4B;" d="M351,362.94v16.81c0,4.57-3.7,8.27-8.26,8.27h-87.15c-4.57,0-8.27-3.7-8.27-8.27v-16.81H351z"
							/>
						<path style="fill:#FF4262;" d="M247.32,362.94v11.54c0,4.57-3.7,8.27-8.26,8.27h-87.15c-4.56,0-8.26-3.7-8.26-8.27v-11.54
							H247.32z"/>
						<path style="fill:#FF4262;" d="M351,362.94v11.54c0,4.57-3.7,8.27-8.26,8.27h-87.15c-4.57,0-8.27-3.7-8.27-8.27v-11.54H351z"
							/>
						<path style="fill:#BD2C4B;" d="M351,345.713c0-21.479-103.677-21.479-103.677,0v17.231H351V345.713z"/>
					</g>
				</g>
				<g>
					<path style="fill:#BD2C4B;" d="M153.32,349h-8.3l-26.98-87.85c29.06,5.07,33.52,64.4,35.24,87.36L153.32,349z"/>
					<path style="fill:#FF4262;" d="M132.726,373.391c4.87,2.424,10.878,0.871,13.873-3.671c2.491-3.778,4.533-9.907,3.79-19.72
						c-1.667-22-6.333-93-41.333-85.667c-32.333,7-1.667,76.18,12.667,98.257C125.025,368.445,129.218,371.645,132.726,373.391z"/>
					<path style="fill:#BD2C4B;" d="M376.61,261.15L349.62,349h-8.29l0.03-0.49C343.08,325.55,347.54,266.22,376.61,261.15z"/>
					<path style="fill:#FF4262;" d="M361.92,373.391c-4.87,2.424-10.878,0.871-13.873-3.671c-2.491-3.778-4.533-9.907-3.79-19.72
						c1.667-22,6.333-93,41.333-85.667c32.333,7,1.667,76.18-12.667,98.257C369.621,368.445,365.428,371.645,361.92,373.391z"/>
				</g>
			</g>
		</g>
		<g>
			<g>
				<rect x="84" y="250.5" style="fill:#AE4059;" width="1" height="49.503"/>
			</g>
			<rect x="71.289" y="238.333" style="fill:#4D2647;" width="4.578" height="157.21"/>
			<path style="fill:#FFA960;" d="M89.328,255.766h-31.5c-12.332,0-22.328-9.997-22.328-22.328v-16.609
				c0-12.331,9.997-22.328,22.328-22.328h31.5c12.331,0,22.328,9.997,22.328,22.328v16.609
				C111.656,245.769,101.66,255.766,89.328,255.766z"/>
			<path style="fill:#FFD073;" d="M81.61,255.766H65.546c-10.335,0-18.713-8.378-18.713-18.713v-23.84
				c0-10.335,8.378-18.713,18.713-18.713H81.61c10.335,0,18.713,8.378,18.713,18.713v23.84
				C100.323,247.388,91.945,255.766,81.61,255.766z"/>
			<path style="fill:#AE4059;" d="M96.267,402.5H50.89v-3.864c0-3.85,3.121-6.971,6.971-6.971h31.434
				c3.85,0,6.971,3.121,6.971,6.971V402.5z"/>
		</g>
		<g>
			<g>
				<polygon style="fill:#68A565;" points="422.717,345.95 415.008,188.592 415.008,345.95 				"/>
				<path style="fill:#A7BF51;" d="M419.934,351.112c-8.63-33.135,0.911-70.418,24.398-95.334
					c-17.446,28.192-24.63,63.428-18.877,96.079C423.915,351.573,421.473,351.396,419.934,351.112z"/>
				<path style="fill:#68A565;" d="M424.826,352.691c-0.478-22.707,9.328-45.433,26.176-60.665
					c-18.844,13.152-31.152,35.506-30.316,58.47C422.137,351.314,423.376,351.874,424.826,352.691z"/>
				<path style="fill:#68A565;" d="M419.002,348.293c2.293-32.694-6.173-66.054-23.779-93.698
					c14.672,28.746,21.193,62.09,18.908,94.282C415.673,348.79,417.46,348.381,419.002,348.293z"/>
				<path style="fill:#A7BF51;" d="M416.53,349.974c-0.502-14.252-5.887-28.287-15.047-39.216
					c6.221,12.481,9.313,26.633,9.734,40.573C412.934,351.103,414.813,350.202,416.53,349.974z"/>
			</g>
			<g>
				<g>
					<g>
						<rect x="400.721" y="393.784" style="fill:#FFA960;" width="35.025" height="4"/>
					</g>
					<rect x="397.492" y="339.988" style="fill:#AE4059;" width="41.483" height="5.962"/>
					<polygon style="fill:#AE4059;" points="430.281,381.72 406.186,381.72 400.721,345.95 435.746,345.95 					"/>
					<polygon style="fill:#4D2647;" points="434.669,353 435.746,345.95 400.721,345.95 401.798,353 					"/>
					<g>
						<polygon style="fill:#FFD073;" points="437.746,410.971 433.746,410.971 433.746,371.3 402.721,371.3 402.721,410.971 
							398.721,410.971 398.721,367.3 437.746,367.3 						"/>
					</g>
				</g>
			</g>
		</g>
		<g>
			<g>
				<g>
					<path style="fill:#FFAE69;" d="M168.394,150.04h-44.439c-0.176,0-0.337-0.113-0.411-0.289c-0.074-0.176-0.05-0.384,0.064-0.533
						l22.22-29.144c0.173-0.226,0.521-0.226,0.694,0l22.219,29.144c0.113,0.149,0.138,0.356,0.064,0.533
						C168.73,149.927,168.57,150.04,168.394,150.04z M124.928,149.04h42.492l-21.246-27.867L124.928,149.04z"/>
				</g>
				<rect x="121.666" y="147.25" style="fill:#4D2647;" width="49.005" height="60.25"/>
				
					<rect x="121.043" y="157.873" transform="matrix(-1.836970e-16 1 -1 -1.836970e-16 323.5429 31.2071)" style="fill:#FFD073;" width="50.25" height="39.005"/>
				<path style="fill:#FFAE69;" d="M149.738,121.153c0,1.968-1.595,3.564-3.564,3.564s-3.564-1.596-3.564-3.564
					c0-1.968,1.595-3.563,3.564-3.563S149.738,119.185,149.738,121.153z"/>
			</g>
			<g>
				<path style="fill:#FFFFFF;" d="M134.441,190.382c-1.905-1.548-2.857-3.591-2.857-6.131v-2.202c0-2.5,0.992-4.514,2.976-6.042
					c1.984-1.528,4.603-2.292,7.857-2.292h3.631c1.032,0,2.143,0.139,3.334,0.417c1.191,0.279,2.281,0.655,3.274,1.132v-3.096
					c0-0.992-0.327-1.795-0.982-2.411c-0.655-0.615-1.518-0.922-2.589-0.922h-5.119c-1.112,0-2.005,0.258-2.679,0.774
					c-0.675,0.516-1.012,1.211-1.012,2.083h-7.858c0-2.896,1.061-5.228,3.185-6.995c2.123-1.765,4.911-2.649,8.364-2.649h5.119
					c3.492,0,6.31,0.923,8.453,2.768c2.143,1.845,3.215,4.296,3.215,7.351v20.061h-7.5v-3.571c-0.952,1.23-2.123,2.213-3.512,2.946
					c-1.389,0.734-2.758,1.101-4.107,1.101h-3.69C138.846,192.703,136.346,191.929,134.441,190.382z M146.228,186.512
					c1.468,0,2.777-0.377,3.928-1.131c1.151-0.753,1.984-1.765,2.5-3.036v-1.012c-0.635-0.476-1.518-0.853-2.649-1.131
					c-1.131-0.277-2.332-0.417-3.602-0.417h-3.75c-0.952,0-1.726,0.238-2.321,0.714c-0.596,0.476-0.893,1.112-0.893,1.905v1.548
					c0,0.754,0.327,1.369,0.982,1.845c0.655,0.476,1.518,0.714,2.589,0.714H146.228z"/>
			</g>
		</g>
		<g>
			<g>
				<rect x="184.734" y="87" style="fill:#FFAE69;" width="131.266" height="120.5"/>
				
					<rect x="193.117" y="84.617" transform="matrix(-1.836970e-16 1 -1 -1.836970e-16 397.6172 -103.1172)" style="fill:#FFFFFF;" width="114.5" height="125.266"/>
				<rect x="194.73" y="97" style="fill:#C4F4F6;" width="111.27" height="100.5"/>
				
					<ellipse transform="matrix(0.2213 -0.9752 0.9752 0.2213 35.9995 370.5624)" style="fill:#FFD073;" cx="250.033" cy="162.74" rx="26.498" ry="26.498"/>
				<path style="fill:#00AAC4;" d="M306,155.01v34.64H194.73v-33.33c5.51-1.56,14.41-3.3,21.96-1.17
					c11.94,3.35,16.88-0.36,33.99-0.99c17.1-0.63,26.4,4.34,39.38,3.91C297.58,157.82,301.63,156.23,306,155.01z"/>
				<path style="fill:#00C4C0;" d="M306,182.333v-19.318c-4.37,1.22-8.42,2.81-15.94,3.06c-12.98,0.43-22.28-4.54-39.38-3.91
					c-17.11,0.63-22.05,4.34-33.99,0.99c-7.55-2.13-16.45-0.39-21.96,1.17v18.008H306z"/>
				<rect x="194.73" y="174.333" style="fill:#FFA791;" width="111.27" height="23.167"/>
				<rect x="194.73" y="187" style="fill:#FF8A85;" width="111.27" height="10.5"/>
			</g>
			<polygon style="opacity:0.3;fill:#FFFFFF;" points="187.734,204.5 187.734,90 313,90 			"/>
		</g>
		<g>
			<path style="fill:#FF8A85;" d="M194.981,376.685l-8.871,13.507c0,0-5.506,6.546-1.177,9.389l10.148,6.665
				c1.799,1.182,4.158-0.443,3.636-2.531c-0.249-0.996-0.844-2.186-2-3.583c-3.151-3.805,0.147-8.826,0.147-8.826l6.142-9.351
				L194.981,376.685z"/>
			<path style="fill:#4D2647;" d="M195.924,337.098c0,0,38.594,3.852,50.592-7.896L227.417,314c0,0-7.03-6.95-7.8-6.95
				c-0.77,0-19.922-3.467-19.783-3.467c0.139,0-3.174,0.379-3.712,1.348C195.582,305.901,195.924,337.098,195.924,337.098z"/>
			<path style="fill:#4D2647;" d="M187.84,381.204c0,0,0.107,10.968,11.994,11.931l44.835-50.154
				c9.653-11.764,9.548-20.701,3.971-23.815c-6.024-3.363-21.222-5.167-21.222-5.167l-1.638,12.501
				C213.469,336.417,200.673,358.356,187.84,381.204z"/>
			<path style="fill:#FFA791;" d="M180.209,381.204l-5.265,15.278c0,0-3.721,7.702,1.175,9.39l11.478,3.956
				c2.035,0.702,3.921-1.455,2.9-3.35c-0.487-0.904-1.357-1.911-2.822-2.978c-3.992-2.91-2.034-8.59-2.034-8.59l3.645-10.577
				L180.209,381.204z"/>
			<path style="fill:#B2405A;" d="M211.69,345.46c-0.52,2.28-1.31,4.9-2.47,7.81c-4.63,11.56-19.65,44.68-19.65,44.68
				s-11.74,0-15.6-6.74l12.31-48.53l0.05-0.19c0,0-5.96-4.11-11.64-10.07c-1.54-1.6-3.05-3.35-4.42-5.18
				c-7.43-9.92-5.05-24.17,5.51-30.64c1.23-0.76,2.05-1.11,2.05-1.11l20.79,8.29L210,329.22
				C212.28,334.31,212.94,340.02,211.69,345.46z"/>
			<g>
				<path style="fill:#FF8A85;" d="M239.965,242.015c2.309,0.835,4.801,2.254,6.886,4.068c0.363-1.736,1.138-5.392,1.605-7.184
					c0.625-2.4-0.471-8.599-1.473-8.327c-1.001,0.273-0.815,3.484-1.297,5.095c-0.401,1.34-3.732,3.203-6.053,6.257
					C239.744,241.956,239.855,241.976,239.965,242.015z"/>
				<path style="fill:#FFA791;" d="M270.18,290.97c0,0-9.11,10.58-24.6,2.67c-0.68-0.34-1.37-0.72-2.08-1.14l1.83-7l7.64-6.7
					l3.28-0.99l1.56,1.48L270.18,290.97z"/>
				<path style="fill:#FF8A85;" d="M257.81,279.29c-1.02,2.5-4.59,9.92-12.23,14.35c-0.68-0.34-1.37-0.72-2.08-1.14l1.83-7l7.64-6.7
					l3.28-0.99L257.81,279.29z"/>
				<path style="fill:#008198;" d="M234.25,264.5l3.75-3.293c0,0,2,0.543,7.25,5.543s11,11.056,11,11.056s-3.385,9.907-12.75,14.694
					l-11.305-8L234.25,264.5z"/>
				<path style="fill:#46AAC0;" d="M228.37,312.26c-0.31,0.59-0.62,1.17-0.95,1.74c0,0-27.25-3.33-44.25-14.33l7.16-22.94l9.5-30.4
					l20.34,8.67l3.16,0.17l14.67,6.04C238,261.21,239.9,290.26,228.37,312.26z"/>
				<path style="fill:#008198;" d="M228.37,312.26c-0.31,0.59-0.62,1.17-0.95,1.74c0,0-27.25-3.33-44.25-14.33l7.16-22.94
					c0.05-0.02,0.1-0.06,0.15-0.09c2.95-6.2,5.9-12.41,8.86-18.61c-1.31,9.82-4.17,19.12-7.92,28.29
					c-1.9,4.65,0.16,10.53,4.06,13.68C203.94,306.82,217.12,309.71,228.37,312.26z"/>
				<path style="fill:#4D2647;" d="M242.5,233.417h2.314c0,0,2.603-0.333,3.519-4.25c0.917-3.917,2.336-8.5-1.04-8.917
					c-3.376-0.417-2.376,0.333-5.96-0.833c-3.583-1.167-14.75-6.167-18.5-1.5c-2.667,3.833-6.667,15.5-6.083,18.667
					c0.583,3.167,2.583,5.25,6.167,5.667L242.5,233.417z"/>
				<path style="fill:#FFA791;" d="M225.38,260.33c-1.09,1.84-6.12,0.56-9.15-1.73c-1.81-1.37-2.35-3.85-1.44-5.93l2.82-6.44
					l3.47-7.9l6.34,5.42l-2.75,7.67l-1.34,3.75C223.33,255.17,227,257.58,225.38,260.33z"/>
				<path style="fill:#FF8A85;" d="M227.42,243.75l-2.75,7.67c-1.25-0.33-2.44-0.81-3.52-1.33c-1.76-1.05-2.87-2.42-3.54-3.86
					l3.47-7.9L227.42,243.75z"/>
				<path style="fill:#FFA791;" d="M224.979,230.192c-0.429-0.839-1.092-1.562-1.877-2.083c-0.785-0.522-1.77-0.789-2.688-0.578
					c-1.215,0.28-2.15,1.404-2.329,2.638c-0.179,1.234,0.346,2.517,1.251,3.374c0.452,0.429,0.99,0.755,1.571,0.982
					c0,0-2.49,8.31,4.072,12.228c4.734,2.304,11.646,3.799,16.13-5.106c4.048-7.846,5.231-12.89,5.231-12.89
					s-5.169-4.92-8.282-4.857s-3.363,2.117-4.048,2.615c-0.685,0.498-3.612-0.498-4.297-0.062s-2.117,4.733-2.117,4.733
					S226.223,232.625,224.979,230.192z"/>
				<g>
					<path style="fill:#F06363;" d="M234.637,241.821c-0.465,0.053-0.841-0.376-1.042-0.799c-0.446-0.942-0.46-2.077-0.038-3.03
						c0.422-0.952,1.273-1.705,2.27-2.007c-0.518,1.207-0.7,2.555-0.521,3.856c0.053,0.388,0.138,0.782,0.067,1.168
						C235.304,241.394,235.027,241.776,234.637,241.821z"/>
					<g>
						<g>
							<path d="M240.749,238.534c-0.425,0.994-1.146,1.638-1.609,1.44c-0.464-0.198-0.495-1.165-0.07-2.158
								c0.425-0.994,1.146-1.638,1.609-1.44C241.143,236.574,241.174,237.54,240.749,238.534z"/>
							<path d="M243.017,235.644c-0.164-0.659-0.591-1.248-1.167-1.608s-1.292-0.486-1.956-0.345
								c0.678-0.495,1.577-0.644,2.288-0.197C242.893,233.94,243.169,234.818,243.017,235.644z"/>
						</g>
						<g>
							<path d="M229.497,233.719c-0.425,0.994-0.394,1.96,0.07,2.158c0.464,0.198,1.184-0.446,1.609-1.44
								c0.425-0.994,0.394-1.96-0.07-2.158S229.922,232.725,229.497,233.719z"/>
							<path d="M230.021,230.083c0.59-0.337,1.311-0.434,1.969-0.266c0.658,0.168,1.244,0.599,1.601,1.177
								c-0.11-0.832-0.623-1.586-1.437-1.791C231.339,228.996,230.513,229.402,230.021,230.083z"/>
						</g>
					</g>
					<path style="fill:#FFFFFF;" d="M230.426,242.865l3.21,1.374c0,0-0.429,0.373-1.806-0.217
						C230.452,243.433,230.426,242.865,230.426,242.865z"/>
					<g>
						<path style="fill:#B2405A;" d="M239.898,245.047c-0.319,0.746-1.505,0.954-2.649,0.465c-1.144-0.489-1.812-1.491-1.493-2.237
							c0.319-0.746,1.505-0.954,2.649-0.465C239.549,243.3,240.218,244.301,239.898,245.047z"/>
						<path style="fill:#B2405A;" d="M228.225,240.192c-0.319,0.746-1.505,0.954-2.649,0.465c-1.144-0.489-1.812-1.491-1.493-2.237
							c0.319-0.746,1.505-0.954,2.649-0.465C227.875,238.444,228.544,239.446,228.225,240.192z"/>
					</g>
				</g>
				<path style="fill:#FFA791;" d="M197.44,331.02c-1.33,0.83-5-1.67-5-1.67s1.5,7.5,0,7.83c-1.5,0.34-3.17-5.83-3.17-5.83
					s0.5,6.83-1.16,6.83c-1.67,0-1.67-6.5-1.67-6.5s-0.33,6.17-1.67,6.5c-1.33,0.34-1.16-5.83-1.16-5.83s-0.84,6.03-2.17,5.85
					c-1.33-0.18,0.67-9.18,2.17-12.52c0,0-12.64-20.11-10.78-36.35c0.57-4.95,1.29-8.85,1.94-11.74c0.93-4.2,1.73-6.26,1.73-6.26
					l12.17,3.34l-0.18,5.12l-0.65,18.69l4.6,25.2C192.44,323.68,198.77,330.18,197.44,331.02z"/>
				<path style="fill:#FF8A85;" d="M188.67,274.67l-0.18,5.12c-0.36,0.02-0.71,0.02-1.07,0.02c-5.68,0-10.01-1.2-12.65-2.22
					c0.93-4.2,1.73-6.26,1.73-6.26L188.67,274.67z"/>
				<path style="fill:#46AAC0;" d="M172.833,274.5c0,0,7.333,4.5,19.5,3l7.5-31.167c0,0-13.5-3.5-20.553,6.497
					C173.691,260.754,172.833,274.5,172.833,274.5z"/>
				<path style="fill:#FFA791;" d="M261.49,293.91l8.685-2.942c0,0,4.387-4.347,1.07-12.359s-23.723-33.956-23.723-33.956
					l-4.482,4.076C243.041,248.729,247.483,276.854,261.49,293.91z"/>
				<path style="fill:#FFA791;" d="M246.529,251.275l-3.564-2.257c0,0-5.189-1.694-2.94-6.197c2.382-4.14,7.256-6.182,7.844-7.758
					c0.588-1.576,0.616-4.792,1.634-4.998c1.017-0.205,1.516,6,0.915,8.406c-1.063,4.257-3.567,7.612-3.567,7.612L246.529,251.275z"
					/>
			</g>
			<path style="fill:#FF8A85;" d="M254.157,282.203c2.495,4.237,6.481,7.577,11.09,9.291c-4.912,0.164-10.235-2.632-12.754-6.852
				C252.877,283.949,253.774,282.897,254.157,282.203z"/>
			<path style="fill:#4D2647;" d="M186.28,342.68l0.05-0.19c0,0-5.96-4.11-11.64-10.07c1.13,0.99,2.34,1.89,3.61,2.69
				c5.82,3.69,12.9,5.37,19.76,4.71C194.37,341.62,190.34,342.55,186.28,342.68z"/>
		</g>
		<g>
			<path style="fill:#4D2647;" d="M295.455,245.161c3.958,4.384,4.454,11.285,1.85,16.587c-2.603,5.302-7.898,8.994-13.621,10.458
				c-5.722,1.464-11.822,0.874-17.488-0.796c-3.886-1.145-7.678-2.825-10.762-5.452c-3.084-2.627-5.416-6.28-5.906-10.302
				c-0.546-4.489,1.186-8.907,2.884-13.098c2.208-5.446,4.415-10.893,6.623-16.339c0.908-2.24,1.963-4.65,4.085-5.806
				c1.828-0.996,4.043-0.831,6.116-0.638c2.75,0.255,5.527,0.517,8.149,1.383c2.622,0.867,5.113,2.406,6.607,4.728
				c2.374,3.69,1.884,8.684,4.253,12.377C290.048,241.072,293.218,242.684,295.455,245.161z"/>
			<g>
				<path style="fill:#FF8A85;" d="M293.641,383.439l-0.512,16.152c0,0,0.739,8.522-4.438,8.358l-12.135-0.385
					c-2.152-0.068-3.147-2.754-1.519-4.162c0.777-0.672,1.948-1.303,3.697-1.78c4.766-1.3,4.956-7.305,4.956-7.305l0.355-11.182
					L293.641,383.439z"/>
				<path style="fill:#FFA791;" d="M305.538,360.982l1.945,16.042c0,0,0.021,8.554,5.162,7.931l12.052-1.461
					c2.137-0.259,2.89-3.023,1.143-4.28c-0.833-0.6-2.056-1.125-3.84-1.445c-4.862-0.871-5.585-6.836-5.585-6.836l-1.346-11.106
					L305.538,360.982z"/>
				<path style="fill:#4D2647;" d="M265.125,334.412c7.76,3.828,17.389,3.599,24.959-0.594c-0.675-4.069-3.023-8.468-5.534-11.741
					C277.112,324.416,269.893,328.242,265.125,334.412z"/>
				<polygon style="fill:#FF8A85;" points="301,287.193 301,303.583 289.167,302.833 289.167,287.193 				"/>
				<path style="fill:#68A565;" d="M285.858,262.853l2.277-3.954c0,0,11.508-0.002,12.826,12.704
					c1.079,12.706,1.438,17.861,1.438,17.861s-7.911,2.637-12.946,0.719L285.858,262.853z"/>
				<path style="fill:#A7BF51;" d="M292.57,278.56l-1.44,6.23l0.6,21.82l-26.3,4.97l-16.79,3.18l3.41-30.3l3-26.64l13.86,1.56
					l8.08,4.07l2.87-2.24l2.88-2.31h5.4C288.14,258.9,296.29,268.49,292.57,278.56z"/>
				<path style="fill:#FFA791;" d="M276.39,268.09c-6.47,0-7.48-8.71-7.48-8.71l2.86-0.12l-0.9-3.86l-1.26-5.4l6.66-1.48l1.39,5.48
					l1.25,4.9h3.83C282.74,258.9,284.67,268.09,276.39,268.09z"/>
				<path style="fill:#FF8A85;" d="M277.66,254c-0.75,0.6-1.64,1.03-2.69,1.22c-1.46,0.27-2.83,0.33-4.1,0.18l-1.26-5.4l6.66-1.48
					L277.66,254z"/>
				<polygon style="fill:#FFA791;" points="250.68,282.75 249.57,287.4 248.94,290.05 246.34,300.91 233.06,300.91 236.83,284.13 
					239.63,281.38 				"/>
				<path style="fill:#4D2647;" d="M281.814,381.167l1.121-62.333c0,0-1.185-12.333,10.606-11.333
					c11.792,1,16.458,12.158,13.625,28.079C304.333,351.5,298,381.167,298,381.167H281.814z"/>
				<path style="fill:#4D2647;" d="M280.245,379.19l18.981,0.394c0.996,0.021,1.771,0.873,1.696,1.867l-0.168,2.24
					c-0.069,0.925-0.854,1.633-1.782,1.606l-18.97-0.54c-0.991-0.028-1.757-0.878-1.683-1.866l0.157-2.093
					C278.546,379.877,279.322,379.171,280.245,379.19z"/>
				<path style="fill:#FFA791;" d="M265.91,231.425c0,0,4.71,5.767,14.705,3.268c0,0,1.634,16.147-6.728,17.685
					c-8.362,1.538-13.744-3.869-14.609-14.045C259.279,238.333,265.718,236.712,265.91,231.425z"/>
				<g>
					<path style="fill:#F06363;" d="M267.962,246.257c0.373,0.164,0.798-0.095,1.074-0.395c0.615-0.668,0.921-1.61,0.816-2.512
						c-0.105-0.902-0.619-1.749-1.37-2.258c0.118,1.139-0.079,2.308-0.564,3.345c-0.145,0.309-0.318,0.616-0.358,0.955
						C267.518,245.73,267.65,246.12,267.962,246.257z"/>
					<g>
						<g>
							<path d="M263.726,241.939c0.097,0.937,0.53,1.66,0.967,1.615c0.437-0.045,0.714-0.842,0.617-1.779
								c-0.097-0.937-0.53-1.66-0.967-1.615C263.905,240.205,263.629,241.001,263.726,241.939z"/>
							<path d="M262.586,238.946c0.307-0.506,0.815-0.886,1.388-1.037c0.572-0.151,1.202-0.071,1.718,0.219
								c-0.436-0.588-1.146-0.945-1.854-0.757C263.13,237.56,262.672,238.219,262.586,238.946z"/>
						</g>
						<g>
							<path d="M274.339,240.843c0.097,0.937-0.179,1.734-0.617,1.779c-0.437,0.045-0.87-0.678-0.967-1.615
								c-0.097-0.937,0.179-1.734,0.617-1.779C273.81,239.183,274.242,239.906,274.339,240.843z"/>
							<path d="M274.844,237.681c-0.404-0.433-0.979-0.701-1.57-0.732c-0.591-0.031-1.191,0.177-1.637,0.565
								c0.307-0.665,0.929-1.159,1.66-1.119C274.028,236.435,274.611,236.987,274.844,237.681z"/>
						</g>
					</g>
					<path style="fill:#FFFFFF;" d="M271.152,247.774l-3.028,0.312c0,0,0.457,2.322,1.756,2.188
						C271.18,250.14,271.152,247.774,271.152,247.774z"/>
					<g>
						<path style="fill:#B2405A;" d="M261.59,247.814c0.073,0.704,1.006,1.184,2.085,1.073c1.079-0.111,1.895-0.772,1.822-1.476
							c-0.073-0.704-1.006-1.184-2.085-1.073C262.333,246.449,261.518,247.11,261.59,247.814z"/>
						<path style="fill:#B2405A;" d="M273.723,246.561c0.073,0.704,1.006,1.184,2.085,1.073c1.079-0.111,1.895-0.772,1.822-1.476
							c-0.073-0.704-1.006-1.184-2.085-1.073C274.466,245.197,273.65,245.858,273.723,246.561z"/>
					</g>
				</g>
				<path style="fill:#A7BF51;" d="M256.838,260.333l-1.786-2.515c0,0-9.715-2.141-13.386,5.767
					c-3.671,7.908-4.831,20.547-4.831,20.547s10.236,4.202,16.867,1.035L256.838,260.333z"/>
				<path style="fill:#68A565;" d="M272.84,305.4c-2.29,2.27-4.77,4.34-7.41,6.18l-16.79,3.18l3.41-30.3
					c1.54-1.94,2.89-4.25,3.49-5.83c1.03-2.74,2.86-5.92,3.21-8.82c-1.11,9.11-1.53,17.89-1.85,27.06c-0.08,2.41-0.1,4.96,1.15,7.02
					c1.55,2.54,3.26,3.94,6.23,3.84C267.25,307.64,270.08,306.51,272.84,305.4z"/>
				<path style="fill:#B2405A;" d="M248.639,314l41.528-17.421c0,0,14-5.913,22.667,1.754C321.5,306,319,362.5,319,362.5
					l-14.333,0.833l-10.537-46.167l-17.832,16.203c-4.08,3.708-9.258,6.082-14.76,6.44c-4.685,0.305-10.033-0.716-14.245-5.31
					C239.833,325.667,248.639,314,248.639,314z"/>
				<path style="fill:#4D2647;" d="M302.575,360.415l18.17-0.986c0.953-0.052,1.755,0.708,1.755,1.662v2.153
					c0,0.889-0.699,1.622-1.587,1.663l-18.17,0.845c-0.949,0.044-1.742-0.713-1.742-1.663v-2.012
					C301,361.193,301.691,360.462,302.575,360.415z"/>
			</g>
			<path style="fill:#FF8A85;" d="M249.57,287.4l-0.63,2.65c-4.04,0.74-7.78,3.22-9.96,6.73
				C240.78,291.87,244.59,288.68,249.57,287.4z"/>
			<path style="fill:#4D2647;" d="M267.608,290.969h-6.5c-1.01,0-1.829-0.819-1.829-1.829V273.78c0-1.01,0.819-1.829,1.829-1.829
				h6.5c1.01,0,1.829,0.819,1.829,1.829v15.359C269.438,290.15,268.619,290.969,267.608,290.969z"/>
			<path style="fill:#FFA791;" d="M257.764,287.193l-23.348,7.691c0,0-4.986,14.021,6.194,13.178
				c10.442-0.844,20.462-15.561,20.462-15.561s5.274-0.34,6.012-1.354c0.738-1.014,1.334-3.411,1.827-3.953
				c0.493-0.542,0-3.917,0-3.917s1.827-1.371,1.265-2.531c-0.561-1.16-9.315,0.844-10.054,1.688
				C259.384,283.275,257.764,287.193,257.764,287.193z"/>
		</g>
	</g>
</g>
</svg>
